HIERARCHY
ROOT hip
{
	OFFSET 0.000000 0.000000 0.000000 
	CHANNELS 6 Xposition Yposition Zposition Xrotation Zrotation Yrotation
	JOINT abdomen
	{
		OFFSET 0.000000 3.402643 0.000000 
		CHANNELS 3 Xrotation Zrotation Yrotation
		JOINT chest
		{
			OFFSET 0.000000 8.438565 -0.680529 
			CHANNELS 3 Xrotation Zrotation Yrotation
			JOINT neck
			{
				OFFSET 0.000000 10.207942 -0.272212 
				CHANNELS 3 Xrotation Zrotation Yrotation
				JOINT head
				{
					OFFSET 0.000000 3.130431 0.000000 
					CHANNELS 3 Xrotation Zrotation Yrotation
					End Site
					{
						OFFSET 0.000000 3.130435 0.000000 
					}
				}
			}
			JOINT lCollar
			{
				OFFSET 3.470700 6.669187 -0.816635 
				CHANNELS 3 Yrotation Zrotation Xrotation
				JOINT lShldr
				{
					OFFSET 3.198488 0.000000 0.000000 
					CHANNELS 3 Zrotation Yrotation Xrotation
					JOINT lForeArm
					{
						OFFSET 10.139888 0.000000 0.000000 
						CHANNELS 3 Yrotation Zrotation Xrotation
						JOINT lHand
						{
							OFFSET 8.370511 0.000000 0.000000 
							CHANNELS 3 Zrotation Yrotation Xrotation
							End Site
							{
								OFFSET 4.083176 0.000000 0.000000 
							}
						}
					}
				}
			}
			JOINT rCollar
			{
				OFFSET -3.470700 6.669187 -0.816635 
				CHANNELS 3 Yrotation Zrotation Xrotation
				JOINT rShldr
				{
					OFFSET -3.198488 0.000000 0.000000 
					CHANNELS 3 Zrotation Yrotation Xrotation
					JOINT rForeArm
					{
						OFFSET -10.139888 0.000000 0.000000 
						CHANNELS 3 Yrotation Zrotation Xrotation
						JOINT rHand
						{
							OFFSET -8.370511 0.000000 0.000000 
							CHANNELS 3 Zrotation Yrotation Xrotation
							End Site
							{
								OFFSET -4.083176 0.000000 0.000000 
							}
						}
					}
				}
			}
		}
	}
	JOINT lThigh
	{
		OFFSET 5.308129 -1.633274 1.361059 
		CHANNELS 3 Xrotation Zrotation Yrotation
		JOINT lShin
		{
			OFFSET -2.041588 -20.007561 0.000000 
			CHANNELS 3 Xrotation Zrotation Yrotation
			JOINT lFoot
			{
				OFFSET 0.000000 -19.190928 -1.224953 
				CHANNELS 3 Xrotation Yrotation Zrotation
				End Site
				{
					OFFSET 0.000000 -2.449906 4.627600 
				}
			}
		}
	}
	JOINT rThigh
	{
		OFFSET -5.308129 -1.633274 1.361059 
		CHANNELS 3 Xrotation Zrotation Yrotation
		JOINT rShin
		{
			OFFSET 2.041588 -20.007561 0.000000 
			CHANNELS 3 Xrotation Zrotation Yrotation
			JOINT rFoot
			{
				OFFSET 0.000000 -19.190928 -1.224953 
				CHANNELS 3 Xrotation Yrotation Zrotation
				End Site
				{
					OFFSET 0.000000 -2.449906 4.627600 
				}
			}
		}
	}
}
MOTION
Frames: 10
Frame Time: 0.016667
9.705472 45.276001 65.132843 -178.001007 175.158997 1.897520 -19.202600 1.103380 -0.032714 20.107100 2.089780 0.120337 12.070000 0.576101 -1.758740 12.476400 5.701420 -0.489113 2.000000 -2.000000 0.000000 -39.605701 -45.219398 152.548996 33.623402 -0.328692 0.075763 0.045559 0.007456 -130.759995 -2.000000 2.000000 0.000000 11.735100 61.002399 141.934998 -36.924198 0.324144 0.082138 -0.063984 0.054618 -156.824005 -14.098160 2.405378 -3.054806 35.969185 2.971563 2.464599 -14.410688 356.948975 -2.706478 -19.829126 -2.932725 -6.374042 40.545418 -2.228167 -2.976351 -7.919720 -8.444766 -1.878540 
9.709797 45.286819 64.454216 -178.238007 175.860992 3.389330 -18.957701 0.940471 -0.188813 20.732599 2.587880 0.027909 12.047300 0.883254 -2.099060 12.508000 5.826490 -0.653116 2.000000 -2.000000 0.000000 -39.937000 -45.298698 151.983002 33.486698 -0.328872 0.075491 0.045568 0.007538 -130.729996 -2.000000 2.000000 0.000000 9.171880 60.501099 138.399994 -36.338299 0.324978 0.081016 -0.062828 0.051314 -155.574005 -13.517150 1.611627 -3.303259 35.375675 3.018771 2.428424 -14.686666 -3.480880 -2.902581 -20.612694 -3.647782 -6.229337 37.466152 -2.254253 -2.836570 -8.131845 -9.282636 -2.093132 
9.767011 45.220146 63.833546 -178.533997 177.490997 4.986440 -19.482300 -0.143313 -0.187533 19.774700 2.363060 -0.159167 12.135200 1.407160 -2.258420 12.479700 5.894600 -0.704686 2.000000 -2.000000 0.000000 -39.778999 -44.673599 152.059998 33.340199 -0.329065 0.075199 0.045731 0.008978 -130.212997 -2.000000 2.000000 0.000000 9.713590 59.171299 139.345993 -36.738701 0.324409 0.081783 -0.074644 0.066793 -157.742004 -12.807186 -0.049541 -3.357478 34.421059 3.037975 2.378459 -15.052699 -4.118973 -3.185312 -21.624605 -5.250441 -5.310876 34.717197 -2.304461 -2.704087 172.012924 189.998596 -182.186798 
9.803768 45.254509 63.172321 -178.906006 177.880997 6.476350 -19.277000 -0.160317 -0.316308 20.263300 2.890590 -0.229618 12.367200 1.402260 -2.671130 12.646400 5.882040 -0.913706 2.000000 -2.000000 0.000000 -40.238400 -44.869099 151.932999 33.447601 -0.328923 0.075413 0.045737 0.009032 -130.192993 -2.000000 2.000000 0.000000 7.355770 58.023399 136.835999 -36.670300 0.324507 0.081652 -0.064143 0.055055 -156.990005 -12.441209 -0.315991 -3.410838 33.994656 3.076736 2.346846 -15.575869 -5.137260 -3.545430 -22.221481 -5.628295 -4.839102 31.359707 -2.315253 -2.501104 -7.924907 -10.333180 -2.240020 
9.839008 45.228504 62.514469 -178.856003 177.207993 8.063960 -19.335800 -0.383603 -0.300036 19.999599 2.197160 -0.255716 11.870000 1.582180 -3.276160 12.389700 5.799510 -1.196600 2.000000 -2.000000 0.000000 -40.259300 -45.033901 152.500000 33.330399 -0.329077 0.075180 0.045711 0.008815 -130.270996 -2.000000 2.000000 0.000000 7.247280 56.531200 135.701996 -36.631199 0.324563 0.081578 -0.063569 0.053459 -156.384995 -12.031947 0.484938 -3.878115 34.189617 3.188116 2.327846 -16.129066 -5.495313 -3.721643 -22.094463 -4.980970 -4.939261 27.369518 -2.251349 -2.300982 173.254181 -169.009888 -182.204346 
9.886348 45.191322 61.860210 1.281400 3.280430 -170.619995 -19.247499 -0.272867 -0.421824 19.921400 2.167840 -0.297450 11.861900 2.301790 -3.376630 12.434900 6.136960 -1.229810 2.000000 -2.000000 0.000000 -40.611301 -45.062801 152.725006 33.105801 -0.329371 0.074732 0.045680 0.008543 -130.369003 -2.000000 2.000000 0.000000 6.253360 55.487900 134.725006 -36.318699 0.325006 0.080978 -0.063262 0.052581 -156.052994 -11.560920 1.317597 -3.779253 34.384918 3.293142 2.307560 -17.090738 -6.348822 -4.076823 -21.749584 -4.479893 -4.682296 23.272701 -2.145491 -2.098617 -6.173957 -11.096111 -2.213431 
9.933643 45.162483 61.199772 0.781851 2.245890 -169.227005 -19.336100 -0.737628 -0.465464 19.921301 2.343610 -0.397052 11.795500 3.063240 -3.591680 12.372000 6.457020 -1.346870 2.000000 -2.000000 0.000000 -40.914101 -44.984200 152.940002 32.988602 -0.329523 0.074497 0.045747 0.009114 -130.164001 -2.000000 2.000000 0.000000 6.248470 54.570499 134.354004 -36.338299 0.324978 0.081016 -0.063244 0.052530 -156.033005 -11.098946 0.382460 -3.685811 33.701897 3.329459 2.247133 -17.776974 -7.058510 -4.422020 -22.245575 -5.758612 -4.143126 20.241573 -2.058975 -1.912153 -5.642566 -11.167455 -2.208337 
10.007648 45.130962 60.532932 0.439480 0.634747 -167.876007 -19.348600 -1.191450 -0.285364 19.754801 2.919640 -0.411884 11.567400 3.091060 -4.153640 12.232700 6.362890 -1.630020 2.000000 -2.000000 0.000000 -41.170601 -45.147202 154.326996 32.978901 -0.329536 0.074478 0.045544 0.007320 -130.807999 -2.000000 2.000000 0.000000 6.369510 52.998199 134.399994 -36.474998 0.324785 0.081278 -0.063606 0.053562 -156.423996 -10.241193 -1.050846 -3.284965 32.868343 3.398568 2.196495 -18.150444 -8.259444 -4.932746 -22.691530 -7.579495 -3.448746 17.980322 -2.017055 -1.748953 -5.384227 -11.857749 -2.281961 
10.026074 45.141907 59.844303 0.273468 0.859365 -167.134003 -19.456200 -1.300930 -0.410362 19.588800 2.665640 -0.484421 12.019700 3.144010 -3.980290 12.439900 6.407450 -1.541600 2.000000 -2.000000 0.000000 -41.266399 -44.453499 154.481003 33.174198 -0.329282 0.074868 0.045476 0.006668 -131.042999 -2.000000 2.000000 0.000000 6.642390 52.695099 134.595001 -36.299198 0.325033 0.080940 -0.063900 0.054386 -156.735992 -9.701411 -0.526997 -2.854551 32.481010 3.513099 2.144145 -18.581255 -8.802084 -5.133727 -22.772556 -7.347761 -2.722607 14.652698 -1.754826 -1.614426 -4.081289 -13.133166 -2.379457 
10.058877 45.075489 59.147240 -0.146502 0.878903 -166.311005 -19.458099 -1.422280 -0.150058 19.725901 2.343500 -0.385507 11.664000 3.224920 -4.374280 12.281800 6.362010 -1.732030 2.000000 -2.000000 0.000000 -41.395699 -44.783501 155.438995 33.174198 -0.329282 0.074868 0.045443 0.006341 -131.160004 -2.000000 2.000000 0.000000 6.853110 51.278599 134.878006 -36.299198 0.325033 0.080940 -0.064521 0.056081 -157.380997 -9.396360 -0.374092 -2.979245 32.019779 3.581017 2.097653 -18.806681 -8.799183 -5.188463 -23.066706 -7.434914 -1.767906 11.761277 -1.461720 -1.490819 -3.311181 -14.676736 -2.614909 
